<?xml version="1.0" encoding="utf-8"?>
<!-- Generator: Adobe Illustrator 18.0.0, SVG Export Plug-In . SVG Version: 6.00 Build 0)  -->
<!DOCTYPE svg PUBLIC "-//W3C//DTD SVG 1.1//EN" "http://www.w3.org/Graphics/SVG/1.1/DTD/svg11.dtd">
<svg version="1.1" id="Layer_1" xmlns="http://www.w3.org/2000/svg" xmlns:xlink="http://www.w3.org/1999/xlink" x="0px" y="0px"
	 viewBox="0 0 86 32" enable-background="new 0 0 86 32" xml:space="preserve">
<g>
	
		<radialGradient id="SVGID_1_" cx="34.7631" cy="10.0188" r="20.9084" gradientTransform="matrix(1.1234 0 0 1.1234 -3.8907 -3.3729)" gradientUnits="userSpaceOnUse">
		<stop  offset="0" style="stop-color:#9DD5F6"/>
		<stop  offset="7.110000e-002" style="stop-color:#98D3F5"/>
		<stop  offset="0.1575" style="stop-color:#89CEF3"/>
		<stop  offset="0.2516" style="stop-color:#70C6EF"/>
		<stop  offset="0.3514" style="stop-color:#4EBBEA"/>
		<stop  offset="0.4546" style="stop-color:#23ADE3"/>
		<stop  offset="0.5" style="stop-color:#0DA6E0"/>
		<stop  offset="1" style="stop-color:#2E77BC"/>
	</radialGradient>
	<path fill="url(#SVGID_1_)" d="M41.9,14.5h0.8c0.3,0,0.4,0,0.5,0.1c0.1,0.1,0.1,0.4,0.1,0.6l0,0.4H44V15c0-0.3,0-0.4-0.1-0.5
		c-0.1-0.1-0.2-0.2-0.3-0.2c0.2-0.1,0.5-0.3,0.5-0.8c0-0.3-0.1-0.5-0.4-0.7c-0.2-0.1-0.5-0.1-0.9-0.1h-1.6v2.9h0.7V14.5z M41.9,13.3
		h0.9c0.1,0,0.3,0,0.3,0.1c0.1,0,0.1,0.1,0.1,0.3c0,0.1-0.1,0.2-0.1,0.3c-0.1,0.1-0.2,0.1-0.3,0.1h-0.9V13.3z"/>
	
		<radialGradient id="SVGID_2_" cx="34.7631" cy="10.0188" r="20.9084" gradientTransform="matrix(1.1234 0 0 1.1234 -3.8907 -3.3729)" gradientUnits="userSpaceOnUse">
		<stop  offset="0" style="stop-color:#9DD5F6"/>
		<stop  offset="7.110000e-002" style="stop-color:#98D3F5"/>
		<stop  offset="0.1575" style="stop-color:#89CEF3"/>
		<stop  offset="0.2516" style="stop-color:#70C6EF"/>
		<stop  offset="0.3514" style="stop-color:#4EBBEA"/>
		<stop  offset="0.4546" style="stop-color:#23ADE3"/>
		<stop  offset="0.5" style="stop-color:#0DA6E0"/>
		<stop  offset="1" style="stop-color:#2E77BC"/>
	</radialGradient>
	<polygon fill="url(#SVGID_2_)" points="40.7,15 39.1,15 39.1,14.4 40.7,14.4 40.7,13.8 39.1,13.8 39.1,13.3 40.7,13.3 40.7,12.6 
		38.3,12.6 38.3,15.6 40.7,15.6 	"/>
	
		<radialGradient id="SVGID_3_" cx="34.7631" cy="10.0188" r="20.9084" gradientTransform="matrix(1.1234 0 0 1.1234 -3.8907 -3.3729)" gradientUnits="userSpaceOnUse">
		<stop  offset="0" style="stop-color:#9DD5F6"/>
		<stop  offset="7.110000e-002" style="stop-color:#98D3F5"/>
		<stop  offset="0.1575" style="stop-color:#89CEF3"/>
		<stop  offset="0.2516" style="stop-color:#70C6EF"/>
		<stop  offset="0.3514" style="stop-color:#4EBBEA"/>
		<stop  offset="0.4546" style="stop-color:#23ADE3"/>
		<stop  offset="0.5" style="stop-color:#0DA6E0"/>
		<stop  offset="1" style="stop-color:#2E77BC"/>
	</radialGradient>
	<path fill="url(#SVGID_3_)" d="M46.9,15.6h0.8l0.3-0.7h1.5l0.3,0.7h1.4v-2.2l1.3,2.2h1v-2.9h-0.7v2l-1.2-2h-1.1v2.8l-1.2-2.8h-1.1
		l-1,2.3h-0.3c-0.2,0-0.4,0-0.5-0.2c-0.1-0.2-0.2-0.4-0.2-0.7c0-0.3,0.1-0.5,0.2-0.7c0.1-0.1,0.3-0.2,0.5-0.2h0.7v-0.6h-0.7
		c-0.5,0-0.8,0.1-1.1,0.3c-0.3,0.3-0.4,0.7-0.4,1.1c0,0.5,0.1,0.9,0.4,1.1C46.1,15.5,46.5,15.6,46.9,15.6z M48.7,13.1l0.5,1.2h-1
		L48.7,13.1z"/>
	
		<radialGradient id="SVGID_4_" cx="34.7631" cy="10.0188" r="20.9084" gradientTransform="matrix(1.1234 0 0 1.1234 -3.8907 -3.3729)" gradientUnits="userSpaceOnUse">
		<stop  offset="0" style="stop-color:#9DD5F6"/>
		<stop  offset="7.110000e-002" style="stop-color:#98D3F5"/>
		<stop  offset="0.1575" style="stop-color:#89CEF3"/>
		<stop  offset="0.2516" style="stop-color:#70C6EF"/>
		<stop  offset="0.3514" style="stop-color:#4EBBEA"/>
		<stop  offset="0.4546" style="stop-color:#23ADE3"/>
		<stop  offset="0.5" style="stop-color:#0DA6E0"/>
		<stop  offset="1" style="stop-color:#2E77BC"/>
	</radialGradient>
	<rect x="44.4" y="12.6" fill="url(#SVGID_4_)" width="0.7" height="2.9"/>
	<g>
		
			<radialGradient id="SVGID_5_" cx="34.7631" cy="10.0188" r="20.9084" gradientTransform="matrix(1.1234 0 0 1.1234 -3.8907 -3.3729)" gradientUnits="userSpaceOnUse">
			<stop  offset="0" style="stop-color:#9DD5F6"/>
			<stop  offset="7.110000e-002" style="stop-color:#98D3F5"/>
			<stop  offset="0.1575" style="stop-color:#89CEF3"/>
			<stop  offset="0.2516" style="stop-color:#70C6EF"/>
			<stop  offset="0.3514" style="stop-color:#4EBBEA"/>
			<stop  offset="0.4546" style="stop-color:#23ADE3"/>
			<stop  offset="0.5" style="stop-color:#0DA6E0"/>
			<stop  offset="1" style="stop-color:#2E77BC"/>
		</radialGradient>
		<polygon fill="url(#SVGID_5_)" points="49.8,18.3 49.8,17.7 47.4,17.7 47.4,20.6 49.8,20.6 49.8,20 48.1,20 48.1,19.4 49.7,19.4 
			49.7,18.8 48.1,18.8 48.1,18.3 		"/>
		
			<radialGradient id="SVGID_6_" cx="34.7631" cy="10.0188" r="20.9084" gradientTransform="matrix(1.1234 0 0 1.1234 -3.8907 -3.3729)" gradientUnits="userSpaceOnUse">
			<stop  offset="0" style="stop-color:#9DD5F6"/>
			<stop  offset="7.110000e-002" style="stop-color:#98D3F5"/>
			<stop  offset="0.1575" style="stop-color:#89CEF3"/>
			<stop  offset="0.2516" style="stop-color:#70C6EF"/>
			<stop  offset="0.3514" style="stop-color:#4EBBEA"/>
			<stop  offset="0.4546" style="stop-color:#23ADE3"/>
			<stop  offset="0.5" style="stop-color:#0DA6E0"/>
			<stop  offset="1" style="stop-color:#2E77BC"/>
		</radialGradient>
		<path fill="url(#SVGID_6_)" d="M51.5,20h-1.4v0.6h1.4c0.7,0,1.1-0.3,1.1-0.9c0-0.3-0.1-0.5-0.2-0.6c-0.2-0.2-0.4-0.2-0.8-0.2
			l-0.4,0c-0.1,0-0.2,0-0.3,0c-0.1,0-0.2-0.1-0.2-0.2c0-0.1,0-0.2,0.1-0.2c0.1,0,0.2-0.1,0.3-0.1h1.3v-0.6h-1.4c-0.7,0-1,0.4-1,0.9
			c0,0.9,0.8,0.9,1.5,0.9c0.1,0,0.2,0,0.3,0.1c0.1,0,0.1,0.1,0.1,0.2c0,0.1,0,0.1-0.1,0.2C51.8,20,51.7,20,51.5,20z"/>
		
			<radialGradient id="SVGID_7_" cx="34.7631" cy="10.0188" r="20.9084" gradientTransform="matrix(1.1234 0 0 1.1234 -3.8907 -3.3729)" gradientUnits="userSpaceOnUse">
			<stop  offset="0" style="stop-color:#9DD5F6"/>
			<stop  offset="7.110000e-002" style="stop-color:#98D3F5"/>
			<stop  offset="0.1575" style="stop-color:#89CEF3"/>
			<stop  offset="0.2516" style="stop-color:#70C6EF"/>
			<stop  offset="0.3514" style="stop-color:#4EBBEA"/>
			<stop  offset="0.4546" style="stop-color:#23ADE3"/>
			<stop  offset="0.5" style="stop-color:#0DA6E0"/>
			<stop  offset="1" style="stop-color:#2E77BC"/>
		</radialGradient>
		<path fill="url(#SVGID_7_)" d="M52.4,21.2V21c-0.2,0.2-0.6,0.3-1,0.3h-5.7v-0.9c0-0.1,0-0.1-0.1-0.1h-0.1v1.1h-1.9v-1.1
			c-0.3,0.1-0.7,0.1-1,0.1h-0.2v1l-2.3,0l-0.6-0.6l-0.6,0.6h-3.7v-4.1H39l0.5,0.6l0.6-0.6h2.5c0.3,0,0.8,0,1,0.2v-0.2h2.3
			c0.2,0,0.7,0,0.9,0.2v-0.2h3.4v0.2c0.2-0.2,0.5-0.2,0.8-0.2h1.9v0.2c0.2-0.1,0.5-0.2,0.9-0.2h1.3V3.5h-25v12.7l0-2.1l0.9-2h1.8
			l0.2,0.5v-0.5h2.1l0.5,1.1l0.5-1.1h6.8c0.3,0,0.6,0.1,0.8,0.2v-0.2h1.9v0.2c0.3-0.2,0.7-0.2,1.2-0.2h2.7l0.3,0.5v-0.5h2l0.3,0.5
			v-0.5h2v4.1h-2l-0.4-0.6v0.6h-2.5L49,15.5h-0.6l-0.3,0.7h-1.3c-0.5,0-0.9-0.1-1.1-0.3v0.3h-3v-0.9c0-0.1,0-0.1-0.1-0.1h-0.1l0,1.1
			h-5.9v-0.5l-0.2,0.5h-1.2l-0.2-0.5v0.5h-2.4l-0.3-0.7h-0.6l-0.3,0.7h-1.2v12.4h25V21c-0.3,0.1-0.7,0.2-1,0.2H52.4z"/>
		
			<radialGradient id="SVGID_8_" cx="34.7631" cy="10.0188" r="20.9084" gradientTransform="matrix(1.1234 0 0 1.1234 -3.8907 -3.3729)" gradientUnits="userSpaceOnUse">
			<stop  offset="0" style="stop-color:#9DD5F6"/>
			<stop  offset="7.110000e-002" style="stop-color:#98D3F5"/>
			<stop  offset="0.1575" style="stop-color:#89CEF3"/>
			<stop  offset="0.2516" style="stop-color:#70C6EF"/>
			<stop  offset="0.3514" style="stop-color:#4EBBEA"/>
			<stop  offset="0.4546" style="stop-color:#23ADE3"/>
			<stop  offset="0.5" style="stop-color:#0DA6E0"/>
			<stop  offset="1" style="stop-color:#2E77BC"/>
		</radialGradient>
		<path fill="url(#SVGID_8_)" d="M47,18.5c0-0.3-0.1-0.5-0.4-0.7c-0.2-0.1-0.5-0.1-0.8-0.1h-1.6v2.9h0.7v-1.1h0.8
			c0.3,0,0.4,0,0.5,0.1c0.1,0.1,0.1,0.4,0.1,0.6v0.4H47v-0.6c0-0.3,0-0.4-0.1-0.5c-0.1-0.1-0.2-0.2-0.3-0.2C46.7,19.2,47,19,47,18.5
			z M46.1,18.9C46,19,45.9,19,45.8,19h-0.9v-0.7h0.9c0.1,0,0.3,0,0.3,0.1c0.1,0,0.1,0.1,0.1,0.3C46.2,18.8,46.2,18.9,46.1,18.9z"/>
		
			<radialGradient id="SVGID_9_" cx="34.7631" cy="10.0188" r="20.9084" gradientTransform="matrix(1.1234 0 0 1.1234 -3.8907 -3.3729)" gradientUnits="userSpaceOnUse">
			<stop  offset="0" style="stop-color:#9DD5F6"/>
			<stop  offset="7.110000e-002" style="stop-color:#98D3F5"/>
			<stop  offset="0.1575" style="stop-color:#89CEF3"/>
			<stop  offset="0.2516" style="stop-color:#70C6EF"/>
			<stop  offset="0.3514" style="stop-color:#4EBBEA"/>
			<stop  offset="0.4546" style="stop-color:#23ADE3"/>
			<stop  offset="0.5" style="stop-color:#0DA6E0"/>
			<stop  offset="1" style="stop-color:#2E77BC"/>
		</radialGradient>
		<path fill="url(#SVGID_9_)" d="M55.2,19.2C55.2,19.1,55.2,19.1,55.2,19.2c-0.2-0.2-0.5-0.3-0.9-0.3l-0.4,0c-0.1,0-0.2,0-0.3,0
			c-0.1,0-0.2-0.1-0.2-0.2c0-0.1,0-0.2,0.1-0.2c0.1,0,0.2-0.1,0.3-0.1h1.3v-0.6h-1.4c-0.7,0-1,0.4-1,0.9c0,0.9,0.8,0.9,1.5,0.9
			c0.1,0,0.2,0,0.2,0.1c0.1,0,0.1,0.1,0.1,0.2c0,0.1,0,0.1-0.1,0.2C54.5,20,54.4,20,54.3,20h-1.4v0.6h1.4c0.4,0,0.8-0.1,1-0.4
			c0.1-0.1,0.1-0.3,0.1-0.6C55.4,19.5,55.3,19.3,55.2,19.2z"/>
		
			<radialGradient id="SVGID_10_" cx="34.7631" cy="10.0188" r="20.9084" gradientTransform="matrix(1.1234 0 0 1.1234 -3.8907 -3.3729)" gradientUnits="userSpaceOnUse">
			<stop  offset="0" style="stop-color:#9DD5F6"/>
			<stop  offset="7.110000e-002" style="stop-color:#98D3F5"/>
			<stop  offset="0.1575" style="stop-color:#89CEF3"/>
			<stop  offset="0.2516" style="stop-color:#70C6EF"/>
			<stop  offset="0.3514" style="stop-color:#4EBBEA"/>
			<stop  offset="0.4546" style="stop-color:#23ADE3"/>
			<stop  offset="0.5" style="stop-color:#0DA6E0"/>
			<stop  offset="1" style="stop-color:#2E77BC"/>
		</radialGradient>
		<path fill="url(#SVGID_10_)" d="M42.7,17.7h-2.2l-0.9,1l-0.9-1h-2.8v2.9h2.8l0.9-1l0.9,1h1.4v-1h0.9c0.6,0,1.2-0.2,1.2-1
			C43.9,17.9,43.2,17.7,42.7,17.7z M38.3,20h-1.7v-0.6h1.5v-0.6h-1.5v-0.5h1.8l0.8,0.9L38.3,20z M41.1,20.4L40,19.2l1.1-1.2V20.4z
			 M42.7,19.1h-0.9v-0.8h0.9c0.3,0,0.4,0.1,0.4,0.4C43.1,18.9,42.9,19.1,42.7,19.1z"/>
	</g>
	
		<radialGradient id="SVGID_11_" cx="34.7631" cy="10.0188" r="20.9084" gradientTransform="matrix(1.1234 0 0 1.1234 -3.8907 -3.3729)" gradientUnits="userSpaceOnUse">
		<stop  offset="0" style="stop-color:#9DD5F6"/>
		<stop  offset="7.110000e-002" style="stop-color:#98D3F5"/>
		<stop  offset="0.1575" style="stop-color:#89CEF3"/>
		<stop  offset="0.2516" style="stop-color:#70C6EF"/>
		<stop  offset="0.3514" style="stop-color:#4EBBEA"/>
		<stop  offset="0.4546" style="stop-color:#23ADE3"/>
		<stop  offset="0.5" style="stop-color:#0DA6E0"/>
		<stop  offset="1" style="stop-color:#2E77BC"/>
	</radialGradient>
	<path fill="url(#SVGID_11_)" d="M33,15.6h1.4v-2.3l1,2.3h0.6l1-2.3l0,2.3h0.7l0-2.9h-1.2l-0.8,2l-0.9-2h-1.1v2.8l-1.2-2.8h-1
		l-1.3,2.9H31l0.3-0.7h1.5L33,15.6z M31.5,14.3l0.5-1.2l0.5,1.2H31.5z"/>
</g>
</svg>
