<?xml version="1.0" encoding="utf-8"?>
<!-- Generator: Adobe Illustrator 18.0.0, SVG Export Plug-In . SVG Version: 6.00 Build 0)  -->
<!DOCTYPE svg PUBLIC "-//W3C//DTD SVG 1.1//EN" "http://www.w3.org/Graphics/SVG/1.1/DTD/svg11.dtd">
<svg version="1.1" id="Layer_1" xmlns="http://www.w3.org/2000/svg" xmlns:xlink="http://www.w3.org/1999/xlink" x="0px" y="0px"
	 viewBox="0 0 86 32" enable-background="new 0 0 86 32" xml:space="preserve">
<g>
	<g>
		<path d="M39.3,10.5c0-0.1,0.1-0.2,0.6-0.2c1.6,0,1.9,1.1,1.9,2c0,0.5-0.3,3.3-3.2,3.3c-0.4,0-0.6,0-0.6-0.3c0-0.1,0.1-0.5,0.2-0.8
			L39.3,10.5z M37.6,10.1c0.5,0,0.7,0.1,0.7,0.4c0,0.2-0.1,0.5-0.1,0.5l-1.1,4c-0.2,0.5-0.3,0.6-0.7,0.7v0.1h2.3
			c2.7,0,4.1-1.7,4.1-3.5c0-1-0.5-2.4-2.6-2.4h-2.5L37.6,10.1L37.6,10.1L37.6,10.1z"/>
		<path d="M44.7,15c-0.3,0.5-0.7,1-1.3,1C43,16,43,15.6,43,15.5c0-0.4,0.7-2.7,0.7-2.9c0-0.2-0.1-0.2-0.6-0.2v-0.1
			c0.3,0,1.1-0.2,1.5-0.2h0l-0.8,2.9c0,0.1-0.1,0.5-0.1,0.6c0,0.1,0.1,0.1,0.1,0.1C44,15.6,44.2,15.4,44.7,15L44.7,15z M44.5,10.9
			c-0.2,0-0.4-0.2-0.4-0.5c0-0.3,0.2-0.5,0.4-0.5c0.3,0,0.5,0.3,0.5,0.5C44.9,10.6,44.8,10.9,44.5,10.9z"/>
		<path d="M48.9,14.9c-0.5,0.6-0.7,1-1.3,1c-0.4,0-0.4-0.3-0.4-0.5c0-0.2,0.7-2.4,0.7-2.8c0-0.2,0-0.3-0.2-0.3c-0.4,0-1,0.8-1.3,1.3
			c-0.4,0.6-0.5,1-0.9,2.3h-0.7c0.3-1,0.9-3.1,0.9-3.3c0-0.1-0.1-0.2-0.6-0.2v-0.1c0.5-0.1,1-0.2,1.5-0.3h0L46,13.8l0,0
			c0.4-0.7,1.3-1.9,2-1.9c0.4,0,0.6,0.2,0.6,0.6s-0.7,2.6-0.7,2.9c0,0.1,0.1,0.2,0.1,0.2c0.2,0,0.4-0.3,0.7-0.7L48.9,14.9z"/>
		<path d="M50,13.6c0.3-0.8,1-1.5,1.5-1.5c0.2,0,0.3,0.2,0.3,0.4c0,0.1,0,1.2-1.9,1.5L50,13.6z M51.9,14.9c-0.5,0.4-0.8,0.7-1.3,0.7
			c-0.4,0-0.8-0.2-0.8-0.8c0-0.2,0-0.4,0.1-0.5l0.2,0c1.5-0.2,2.3-1,2.3-1.7c0-0.4-0.3-0.6-0.7-0.6c-1.3,0-2.7,1.5-2.7,2.8
			c0,0.6,0.3,1.3,1.3,1.3c0.9,0,1.7-0.8,1.8-1L51.9,14.9z"/>
		<path d="M52.5,15.9l0.7-2.6c0.1-0.3,0.1-0.6,0.1-0.7c0-0.1,0-0.3-0.3-0.3c-0.1,0-0.2,0-0.3,0v-0.2c0.5-0.1,1-0.2,1.4-0.2h0
			l-0.5,1.8l0,0l0.1-0.2c0.3-0.6,1-1.7,1.5-1.7c0.2,0,0.4,0.1,0.4,0.5c0,0.5-0.3,0.5-0.4,0.5c-0.4,0-0.2-0.3-0.5-0.3
			c-0.3,0-0.8,1-0.9,1.1c-0.3,0.7-0.5,1-0.8,2.3L52.5,15.9L52.5,15.9L52.5,15.9z"/>
		<path d="M55.3,14.5c0.1,0.4,0.2,1.3,1,1.3c0.5,0,0.7-0.4,0.7-0.7c0-0.6-1.1-1.5-1.1-2.2c0-0.3,0.1-1,1.1-1c0.4,0,0.6,0.2,0.9,0.2
			c0.2,0,0.2-0.1,0.2-0.2h0.1l-0.2,1.3h-0.1c0-0.5-0.2-1-0.8-1c-0.2,0-0.5,0.1-0.5,0.5c0,0.6,1.1,1.4,1.1,2.1c0,1-0.8,1.2-1.3,1.2
			c-0.3,0-0.6-0.2-0.9-0.2c-0.1,0-0.2,0.1-0.2,0.2h-0.1L55.3,14.5C55.3,14.5,55.3,14.5,55.3,14.5z"/>
		<path d="M65.7,11.6c0-0.2-0.1-1.5-1.4-1.5c-1.8,0-2.8,2.2-2.8,3.5c0,1.2,0.5,1.9,1.6,1.9c1,0,1.7-0.6,2.1-1.1l0.2,0.1
			c-0.3,0.4-1.1,1.3-2.5,1.3c-1,0-2.4-0.6-2.4-2.5c0-1.8,1.6-3.8,3.7-3.8c0.7,0,1.2,0.2,1.4,0.2c0.2,0,0.3-0.1,0.4-0.2h0.2l-0.3,1.8
			L65.7,11.6z"/>
		<path d="M67.3,14.8C66.9,15.5,66.5,16,66,16c-0.4,0-0.4-0.3-0.4-0.5c0-0.2,1.3-4.9,1.3-5.1c0-0.2-0.4-0.2-0.6-0.2V10
			c0.5,0,1-0.1,1.4-0.2l0,0L66.3,15c0,0.1-0.1,0.3-0.1,0.4c0,0,0,0.2,0.1,0.2C66.6,15.6,66.8,15.3,67.3,14.8L67.3,14.8z"/>
		<path d="M71.5,14.9c-0.6,0.8-0.8,1-1.3,1c-0.4,0-0.4-0.3-0.4-0.5c0-0.2,0.2-0.9,0.4-1.7l0,0c-0.6,1-1.3,2.2-2.1,2.2
			c-0.3,0-0.5-0.1-0.5-0.5c0-0.4,0.7-2.7,0.7-2.9c0-0.2-0.2-0.2-0.5-0.2v-0.1c0.5,0,0.9-0.1,1.4-0.2h0l-0.8,3.3c0,0.1,0,0.3,0.2,0.3
			c0.4,0,1-0.8,1.3-1.3c0.5-0.7,0.6-1.3,1-2.2h0.7l-0.7,2.7c0,0.2-0.2,0.6-0.2,0.7c0,0,0,0.1,0.1,0.1c0.2,0,0.4-0.3,0.7-0.7
			L71.5,14.9z"/>
		<path d="M74.8,13.1c0,0.7-0.9,2.7-2.1,2.7c-0.4,0-0.4-0.2-0.4-0.3c0-1,0.9-3.1,1.9-3.1C74.7,12.3,74.8,12.8,74.8,13.1z M72.3,10
			c0.5,0,0.6,0,0.6,0.2c0,0.1-0.1,0.3-0.1,0.6l-1.3,4.5v0c0,0.2,0.7,0.5,1.2,0.5c1.4,0,2.9-1.6,2.9-3c0-0.7-0.5-1.1-1.1-1.1
			c-0.8,0-1.4,0.8-1.7,1.3l0,0c0.3-1,0.7-2.7,0.9-3.5l-0.1-0.1c-0.5,0.1-0.9,0.2-1.4,0.2L72.3,10L72.3,10z"/>
		<path d="M36.4,22.8c0.5-0.1,0.6-0.1,0.7-0.7l1.1-4c0-0.2,0.1-0.4,0.1-0.5c0-0.3-0.2-0.3-0.6-0.4v-0.1H40v0.1
			c-0.5,0.1-0.6,0.1-0.7,0.7l-1.1,4c0,0.2-0.1,0.4-0.1,0.6c0,0.3,0.2,0.3,0.6,0.4V23h-2.2L36.4,22.8L36.4,22.8L36.4,22.8z"/>
		<path d="M43,22c-0.5,0.6-0.7,1-1.3,1c-0.4,0-0.4-0.3-0.4-0.5c0-0.2,0.7-2.4,0.7-2.8c0-0.2,0-0.3-0.2-0.3c-0.4,0-1,0.8-1.3,1.3
			c-0.4,0.6-0.5,1-0.9,2.3h-0.7c0.3-1,0.9-3.1,0.9-3.3c0-0.1-0.1-0.2-0.6-0.2v-0.1c0.5-0.1,1-0.2,1.5-0.3h0L40,20.8l0,0
			c0.4-0.7,1.3-1.9,2-1.9c0.4,0,0.6,0.2,0.6,0.6S42,22.1,42,22.4c0,0.1,0.1,0.2,0.1,0.2c0.2,0,0.4-0.3,0.7-0.7L43,22z"/>
		<path d="M45.4,19.3h-0.7l-0.8,3c0,0,0,0,0,0.1c0,0.1,0,0.2,0.1,0.2c0.2,0,0.5-0.4,0.7-0.7l0.1,0.1C44.3,22.6,44,23,43.5,23
			c-0.2,0-0.4-0.1-0.4-0.4c0-0.1,0.2-0.7,0.2-0.8l0.7-2.5h-0.7c0,0,0-0.1,0-0.1c0-0.1,0.3-0.1,0.5-0.2c0.3-0.2,0.7-0.5,1-0.9
			c0,0,0.1-0.1,0.2-0.1c0.1,0,0.1,0.1,0.1,0.1L44.8,19h0.7L45.4,19.3z"/>
		<path d="M46.2,20.7c0.3-0.8,1-1.5,1.5-1.5c0.2,0,0.3,0.2,0.3,0.4c0,0.1,0,1.2-1.9,1.5L46.2,20.7z M48,22c-0.5,0.4-0.8,0.7-1.3,0.7
			c-0.4,0-0.8-0.2-0.8-0.8c0-0.2,0-0.4,0.1-0.5l0.2,0c1.5-0.2,2.3-1,2.3-1.7c0-0.4-0.3-0.6-0.7-0.6c-1.3,0-2.7,1.5-2.7,2.8
			c0,0.6,0.3,1.3,1.3,1.3c0.9,0,1.7-0.8,1.8-1L48,22z"/>
		<path d="M48.8,22.9l0.7-2.6c0.1-0.3,0.1-0.6,0.1-0.7c0-0.1,0-0.3-0.3-0.3c-0.1,0-0.2,0-0.3,0v-0.2c0.5-0.1,1-0.2,1.4-0.2h0
			L50,20.7l0,0l0.1-0.2c0.3-0.6,1-1.7,1.5-1.7c0.2,0,0.4,0.1,0.4,0.5c0,0.5-0.3,0.5-0.4,0.5c-0.4,0-0.2-0.3-0.5-0.3
			c-0.3,0-0.8,1-0.9,1.1c-0.3,0.7-0.5,1-0.8,2.3L48.8,22.9L48.8,22.9L48.8,22.9z"/>
		<path d="M55.7,22c-0.5,0.6-0.7,1-1.3,1C54,23,54,22.8,54,22.5c0-0.2,0.7-2.4,0.7-2.8c0-0.2,0-0.3-0.2-0.3c-0.4,0-1,0.8-1.3,1.3
			c-0.4,0.6-0.5,1-0.9,2.3h-0.7c0.3-1,0.9-3.1,0.9-3.3c0-0.1-0.1-0.2-0.6-0.2v-0.1c0.5-0.1,1-0.2,1.5-0.3h0l-0.6,1.9l0,0
			c0.4-0.7,1.3-1.9,2-1.9c0.4,0,0.6,0.2,0.6,0.6s-0.7,2.6-0.7,2.9c0,0.1,0.1,0.2,0.1,0.2c0.2,0,0.4-0.3,0.7-0.7L55.7,22z"/>
		<path d="M56.4,22c0-0.8,0.8-2.8,1.9-2.8c0.2,0,0.5,0.2,0.5,0.6c0,0.9-0.9,2.8-1.8,2.8C56.7,22.6,56.4,22.4,56.4,22z M59.7,21.9
			c-0.4,0.4-0.6,0.6-0.7,0.6c-0.1,0-0.1,0-0.1-0.1c0-0.3,0.8-3.4,0.9-3.5l-0.1,0L59.1,19l0,0L59,19.5l0,0c0-0.2-0.3-0.5-0.7-0.5
			c-1.2,0-2.6,1.7-2.6,3c0,0.2,0,1.1,0.9,1.1c0.5,0,1-0.3,1.8-1.4l0,0c-0.1,0.5-0.2,0.7-0.2,1c0,0.2,0,0.4,0.4,0.4s0.7-0.3,1.3-1
			L59.7,21.9z"/>
		<path d="M62.4,19.3h-0.7l-0.8,3c0,0,0,0,0,0.1c0,0.1,0,0.2,0.1,0.2c0.2,0,0.5-0.4,0.7-0.7l0.1,0.1C61.4,22.7,61,23,60.6,23
			c-0.2,0-0.4-0.1-0.4-0.4c0-0.1,0.2-0.7,0.2-0.8l0.7-2.5h-0.7c0,0,0-0.1,0-0.1c0-0.1,0.3-0.1,0.5-0.2c0.3-0.2,0.7-0.5,1-0.9
			c0,0,0.1-0.1,0.2-0.1c0.1,0,0.1,0.1,0.1,0.1L61.8,19h0.7L62.4,19.3z"/>
		<path d="M64.1,22c-0.3,0.5-0.7,1-1.3,1c-0.4,0-0.4-0.4-0.4-0.5c0-0.4,0.7-2.7,0.7-2.9c0-0.2-0.1-0.2-0.6-0.2v-0.1
			c0.3,0,1.1-0.2,1.5-0.2h0l-0.8,2.9c0,0.1-0.1,0.5-0.1,0.6c0,0.1,0.1,0.1,0.1,0.1C63.4,22.6,63.7,22.5,64.1,22L64.1,22z M64,18
			c-0.2,0-0.4-0.2-0.4-0.5c0-0.3,0.2-0.5,0.4-0.5c0.3,0,0.5,0.3,0.5,0.5C64.4,17.7,64.3,18,64,18z"/>
		<path d="M67.1,19.1c0.4,0,0.6,0.4,0.6,0.9c0,1-0.7,2.8-1.8,2.8c-0.5,0-0.7-0.3-0.7-0.8C65.3,20.9,66.1,19.1,67.1,19.1z M67.2,19
			c-1.3,0-2.7,1.5-2.7,2.8c0,0.7,0.4,1.3,1.4,1.3c1.4,0,2.6-1.6,2.6-2.8C68.5,19.7,68.2,19,67.2,19z"/>
		<path d="M72.4,22c-0.5,0.6-0.7,1-1.3,1c-0.4,0-0.4-0.3-0.4-0.5c0-0.2,0.7-2.4,0.7-2.8c0-0.2,0-0.3-0.2-0.3c-0.4,0-1,0.8-1.3,1.3
			c-0.4,0.6-0.5,1-0.9,2.3h-0.7c0.3-1,0.9-3.1,0.9-3.3c0-0.1-0.1-0.2-0.6-0.2v-0.1c0.5-0.1,1-0.2,1.5-0.3h0l-0.6,1.9l0,0
			c0.4-0.7,1.3-1.9,2-1.9c0.4,0,0.6,0.2,0.6,0.6s-0.7,2.6-0.7,2.9c0,0.1,0.1,0.2,0.1,0.2c0.2,0,0.4-0.3,0.7-0.7L72.4,22z"/>
		<path d="M73.4,22c0-0.8,0.8-2.8,1.9-2.8c0.2,0,0.5,0.2,0.5,0.6c0,0.9-0.9,2.8-1.8,2.8C73.6,22.6,73.4,22.4,73.4,22z M76.6,21.9
			c-0.4,0.4-0.6,0.6-0.7,0.6c-0.1,0-0.1,0-0.1-0.1c0-0.3,0.8-3.4,0.9-3.5l-0.1,0L76,19l0,0l-0.1,0.4l0,0c0-0.2-0.3-0.5-0.7-0.5
			c-1.2,0-2.6,1.7-2.6,3c0,0.2,0,1.1,0.9,1.1c0.5,0,1-0.3,1.8-1.4l0,0c-0.1,0.5-0.2,0.7-0.2,1c0,0.2,0,0.4,0.4,0.4
			c0.4,0,0.7-0.3,1.3-1L76.6,21.9z"/>
		<path d="M78.7,21.9c-0.5,0.7-0.8,1.1-1.4,1.1c-0.4,0-0.4-0.3-0.4-0.5c0-0.2,1.3-4.9,1.3-5.1c0-0.2-0.4-0.2-0.6-0.2V17
			c0.5,0,1-0.1,1.4-0.2l0,0l-1.4,5.3c0,0.1-0.1,0.3-0.1,0.4c0,0,0,0.2,0.1,0.2C77.9,22.7,78.1,22.4,78.7,21.9L78.7,21.9z"/>
		<path d="M79.9,17L79.9,17c0.2,0,0.2,0,0.2,0.2c0,0.1,0,0.2-0.2,0.2h-0.1V17z M79.7,17c0.1,0,0.1,0,0.1,0.1v0.5
			c0,0.1,0,0.1-0.1,0.1v0h0.4v0c-0.1,0-0.1,0-0.1-0.1v-0.2h0.1c0.1,0.2,0.2,0.4,0.3,0.4h0.1l0,0c0,0-0.1-0.1-0.2-0.2l-0.1-0.2
			c0.1,0,0.2-0.1,0.2-0.2c0-0.1-0.1-0.2-0.2-0.2L79.7,17L79.7,17z M80.8,17.3c0-0.4-0.3-0.8-0.7-0.8s-0.8,0.3-0.8,0.8
			c0,0.4,0.3,0.8,0.8,0.8C80.5,18.1,80.8,17.8,80.8,17.3z M80.7,17.3c0,0.4-0.3,0.7-0.6,0.7c-0.4,0-0.7-0.3-0.7-0.7
			c0-0.4,0.3-0.7,0.7-0.7C80.4,16.7,80.7,17,80.7,17.3z"/>
	</g>
	<g>
		<path fill="#034EA2" d="M25.1,25.3c5.2,0,9.4-4.2,9.4-9.4c0.1-5.3-4.2-9.6-9.4-9.6H14.7c-5.2,0-9.5,4.3-9.5,9.5
			c0.1,5.2,4.3,9.4,9.5,9.4L25.1,25.3L25.1,25.3z"/>
		<path fill="#FFFFFF" d="M5.9,15.9c0-5,4-8.9,8.9-8.9c4.9,0,8.8,4,8.9,8.9c0,4.8-4,8.8-8.9,8.8C9.9,24.7,5.9,20.8,5.9,15.9
			L5.9,15.9z"/>
		<path fill="#034EA2" d="M12.8,10.7c-2,0.9-3.6,2.9-3.6,5.3c0,2.3,1.5,4.3,3.6,5.1V10.7L12.8,10.7z"/>
		<path fill="#034EA2" d="M16.7,21c2.1-0.8,3.6-2.8,3.6-5.1c0-2.4-1.5-4.4-3.6-5.3L16.7,21L16.7,21z"/>
	</g>
</g>
</svg>
