<?xml version="1.0" encoding="utf-8"?>
<!-- Generator: Adobe Illustrator 18.0.0, SVG Export Plug-In . SVG Version: 6.00 Build 0)  -->
<!DOCTYPE svg PUBLIC "-//W3C//DTD SVG 1.1//EN" "http://www.w3.org/Graphics/SVG/1.1/DTD/svg11.dtd">
<svg version="1.1" id="Layer_1" xmlns="http://www.w3.org/2000/svg" xmlns:xlink="http://www.w3.org/1999/xlink" x="0px" y="0px"
	 viewBox="0 0 86 32" enable-background="new 0 0 86 32" xml:space="preserve">
<path id="path20" inkscape:connector-curvature="0" fill="#231F20" d="M11.8,19.2c-0.7,0.6-1.7,0.9-3.1,0.9H8.1v-7.8h0.6
	c1.5,0,2.4,0.3,3.1,0.9c0.8,0.7,1.3,1.8,1.3,2.9C13.1,17.4,12.6,18.5,11.8,19.2 M9.1,10.4H5.8v11.7h3.3c1.8,0,3.1-0.4,4.2-1.4
	c1.3-1.1,2.1-2.8,2.1-4.5C15.4,12.8,12.9,10.4,9.1,10.4"/>
<path id="path22" inkscape:connector-curvature="0" fill="#231F20" d="M16.5,22.1h2.3V10.4h-2.3V22.1z"/>
<path id="path24" inkscape:connector-curvature="0" fill="#231F20" d="M24.4,14.9c-1.4-0.5-1.8-0.8-1.8-1.5c0-0.7,0.7-1.3,1.7-1.3
	c0.7,0,1.2,0.3,1.8,1l1.2-1.6c-1-0.9-2.2-1.3-3.4-1.3c-2.1,0-3.7,1.4-3.7,3.4c0,1.6,0.7,2.4,2.9,3.2c0.9,0.3,1.4,0.5,1.6,0.7
	c0.5,0.3,0.7,0.7,0.7,1.2c0,1-0.8,1.7-1.8,1.7c-1.1,0-2-0.5-2.5-1.6l-1.5,1.4c1.1,1.5,2.3,2.2,4.1,2.2c2.4,0,4-1.6,4-3.9
	C27.8,16.7,27,15.9,24.4,14.9"/>
<path id="path26" inkscape:connector-curvature="0" fill="#231F20" d="M28.5,16.3c0,3.4,2.7,6.1,6.2,6.1c1,0,1.8-0.2,2.9-0.7V19
	c-0.9,0.9-1.7,1.3-2.8,1.3c-2.3,0-3.9-1.7-3.9-4c0-2.3,1.7-4,3.8-4c1.1,0,1.9,0.4,2.9,1.3v-2.7c-1-0.5-1.8-0.7-2.8-0.7
	C31.3,10.1,28.5,12.9,28.5,16.3"/>
<path id="path28" inkscape:connector-curvature="0" fill="#231F20" d="M55.7,18.3l-3.1-7.9h-2.5l5,12h1.2l5.1-12h-2.5"/>
<path id="path30" inkscape:connector-curvature="0" fill="#231F20" d="M62.4,22.1h6.5v-2h-4.2V17h4v-2h-4v-2.6h4.2v-2h-6.5"/>
<path id="path32" inkscape:connector-curvature="0" fill="#231F20" d="M73.3,15.8h-0.7v-3.6h0.7c1.4,0,2.2,0.6,2.2,1.7
	C75.6,15.2,74.8,15.8,73.3,15.8 M77.9,13.9c0-2.2-1.5-3.5-4.2-3.5h-3.4v11.7h2.3v-4.7H73l3.2,4.7h2.8l-3.7-4.9
	C77,16.8,77.9,15.7,77.9,13.9"/>
<path id="path34" inkscape:connector-curvature="0" fill="#F46F1B" d="M50.7,16.3c0,3.4-2.8,6.2-6.2,6.2c-3.4,0-6.2-2.8-6.2-6.2
	c0-3.4,2.8-6.2,6.2-6.2C48,10,50.7,12.8,50.7,16.3"/>
<path id="path36" inkscape:connector-curvature="0" fill="#231F20" d="M78.7,10.8L78.7,10.8l0-0.3h0c0.1,0,0.2,0,0.2,0.1
	C78.9,10.7,78.8,10.8,78.7,10.8 M79.1,10.6c0-0.2-0.1-0.3-0.4-0.3h-0.3v1h0.2v-0.4l0.3,0.4h0.3l-0.3-0.4
	C79.1,10.9,79.1,10.8,79.1,10.6"/>
<path id="path38" inkscape:connector-curvature="0" fill="#231F20" d="M78.8,11.6c-0.4,0-0.7-0.3-0.7-0.7c0-0.4,0.3-0.7,0.7-0.7
	c0.4,0,0.7,0.3,0.7,0.7C79.5,11.2,79.2,11.6,78.8,11.6 M78.8,9.9c-0.5,0-0.9,0.4-0.9,0.9c0,0.5,0.4,0.9,0.9,0.9
	c0.5,0,0.9-0.4,0.9-0.9C79.7,10.3,79.3,9.9,78.8,9.9"/>
</svg>
