<?xml version="1.0" encoding="utf-8"?>
<!-- Generator: Adobe Illustrator 18.0.0, SVG Export Plug-In . SVG Version: 6.00 Build 0)  -->
<!DOCTYPE svg PUBLIC "-//W3C//DTD SVG 1.1//EN" "http://www.w3.org/Graphics/SVG/1.1/DTD/svg11.dtd">
<svg version="1.1" id="Layer_1" xmlns="http://www.w3.org/2000/svg" xmlns:xlink="http://www.w3.org/1999/xlink" x="0px" y="0px"
	 viewBox="0 0 86 32" enable-background="new 0 0 86 32" xml:space="preserve">
<g>
	<path d="M36.5,26.3c-0.1-0.1-0.2-0.2-0.3-0.2C36,26,35.9,26,35.7,26c-0.1,0-0.2,0-0.3,0c-0.1,0-0.2,0-0.3,0.1
		c-0.1,0-0.2,0.1-0.2,0.1c-0.1,0.1-0.1,0.1-0.2,0.2c-0.1-0.1-0.2-0.3-0.4-0.4c0,0-0.2,0-0.4,0c-0.1,0-0.1,0-0.2,0s-0.1,0-0.2,0.1
		c-0.1,0-0.1,0.1-0.2,0.1c-0.1,0.1-0.1,0.1-0.2,0.2v-0.3h-0.6v2.7h0.6v-1.5c0-0.1,0-0.2,0.1-0.3c0-0.1,0.1-0.2,0.1-0.2
		c0.1-0.1,0.1-0.1,0.2-0.1s0.2,0,0.3,0c0.2,0,0.3,0.1,0.4,0.2c0.1,0.1,0.2,0.3,0.2,0.5v1.5H35v-1.5c0-0.1,0-0.2,0.1-0.3
		c0-0.1,0.1-0.2,0.1-0.2c0.1-0.1,0.1-0.1,0.2-0.1s0.2,0,0.3,0c0.2,0,0.3,0.1,0.4,0.2c0.1,0.1,0.2,0.3,0.2,0.5V29h0.6v-1.7
		c0-0.2,0-0.3-0.1-0.4C36.7,26.5,36.6,26.4,36.5,26.3z"/>
	<path d="M39.5,26.4c-0.1-0.1-0.2-0.2-0.3-0.3C39,26,38.8,26,38.6,26c-0.2,0-0.4,0-0.5,0.1c-0.2,0.1-0.3,0.2-0.4,0.3
		c-0.1,0.1-0.2,0.3-0.3,0.4c-0.1,0.2-0.1,0.4-0.1,0.6s0,0.4,0.1,0.6s0.2,0.3,0.3,0.4s0.3,0.2,0.4,0.3c0.2,0.1,0.3,0.1,0.5,0.1
		c0.2,0,0.4,0,0.5-0.1s0.3-0.2,0.3-0.3v0.3H40V26h-0.6v0.4H39.5z M39.5,27.8c0,0.1-0.1,0.2-0.2,0.3c-0.1,0.1-0.2,0.1-0.3,0.2
		c-0.1,0-0.2,0.1-0.3,0.1s-0.2,0-0.3-0.1c-0.1,0-0.2-0.1-0.3-0.2s-0.1-0.2-0.2-0.3c0-0.1-0.1-0.2-0.1-0.3c0-0.1,0-0.2,0.1-0.3
		c0-0.1,0.1-0.2,0.2-0.3c0.1-0.1,0.2-0.1,0.3-0.2c0.1,0,0.2-0.1,0.3-0.1s0.2,0,0.3,0.1c0.1,0,0.2,0.1,0.3,0.2s0.1,0.2,0.2,0.3
		c0,0.1,0.1,0.2,0.1,0.3S39.5,27.7,39.5,27.8z"/>
	<path d="M42.8,26.4c-0.1-0.1-0.2-0.2-0.4-0.3C42.2,26,42,26,41.8,26c-0.2,0-0.4,0-0.5,0.1c-0.2,0.1-0.3,0.2-0.4,0.3
		c-0.1,0.1-0.2,0.3-0.3,0.4c-0.1,0.2-0.1,0.4-0.1,0.6c0,0.2,0,0.4,0.1,0.6s0.2,0.3,0.3,0.4s0.3,0.2,0.4,0.3c0.2,0.1,0.4,0.1,0.6,0.1
		c0.2,0,0.4,0,0.6-0.1c0.2-0.1,0.4-0.2,0.5-0.3L42.7,28c-0.1,0.1-0.2,0.2-0.4,0.2c-0.1,0-0.3,0.1-0.4,0.1c-0.1,0-0.2,0-0.3,0
		s-0.2-0.1-0.2-0.1c-0.1-0.1-0.1-0.1-0.2-0.2s-0.1-0.2-0.1-0.3h2v-0.1v-0.1c0-0.2,0-0.4-0.1-0.6C43,26.7,42.9,26.5,42.8,26.4z
		 M41.1,27.2c0-0.1,0-0.2,0.1-0.3c0-0.1,0.1-0.2,0.1-0.2c0.1-0.1,0.1-0.1,0.2-0.1s0.2,0,0.3,0c0.2,0,0.3,0.1,0.5,0.2
		c0.1,0.1,0.2,0.3,0.2,0.5h-1.4V27.2z"/>
	<path d="M50.2,26c-0.2,0-0.3,0-0.4,0.1c-0.1,0.1-0.2,0.2-0.3,0.3V26H49v2.7h0.5v-1.5c0-0.1,0-0.2,0-0.3c0-0.1,0.1-0.2,0.1-0.2
		c0.1-0.1,0.1-0.1,0.2-0.1c0.1,0,0.2,0,0.3,0s0.1,0,0.2,0h0.1l0.2-0.6h-0.1C50.3,26,50.3,26,50.2,26z"/>
	<path d="M45.4,27.4c-0.2-0.1-0.4-0.2-0.7-0.3h-0.3c-0.1,0-0.1,0-0.2,0c-0.1,0-0.1,0-0.1,0S44,27.1,44,27v-0.1c0-0.1,0-0.2,0.1-0.2
		c0.1-0.1,0.2-0.1,0.4-0.1c0.1,0,0.2,0,0.2,0c0.1,0,0.2,0,0.2,0.1c0.1,0,0.1,0,0.2,0.1c0.1,0,0.1,0.1,0.2,0.1l0.3-0.5
		c-0.1-0.1-0.3-0.2-0.5-0.2s-0.4-0.1-0.6-0.1c-0.2,0-0.3,0-0.5,0.1c-0.1,0-0.3,0.1-0.3,0.2c-0.1,0.1-0.2,0.2-0.2,0.3
		c-0.1,0.1-0.1,0.2-0.1,0.4c0,0.2,0.1,0.4,0.2,0.5c0.2,0.1,0.4,0.2,0.7,0.3h0.3c0.2,0,0.3,0.1,0.4,0.1c0.1,0,0.1,0.1,0.1,0.2
		s-0.1,0.2-0.2,0.2c-0.1,0.1-0.3,0.1-0.5,0.1c-0.1,0-0.2,0-0.3,0s-0.2,0-0.2-0.1c-0.1,0-0.1-0.1-0.2-0.1c-0.1,0-0.1-0.1-0.2-0.1
		l-0.3,0.4c0.1,0.1,0.2,0.1,0.3,0.2s0.2,0.1,0.3,0.1s0.2,0,0.3,0.1c0.1,0,0.2,0,0.2,0c0.2,0,0.4,0,0.5-0.1c0.2,0,0.3-0.1,0.4-0.2
		c0.1-0.1,0.2-0.2,0.2-0.3c0.2-0.2,0.2-0.3,0.2-0.4C45.6,27.7,45.5,27.5,45.4,27.4z"/>
	<path d="M47.9,28.2c-0.1,0-0.2,0.1-0.3,0.1s-0.1,0-0.2,0c-0.1,0-0.1,0-0.1-0.1c0,0-0.1-0.1-0.1-0.2s0-0.1,0-0.2v-1.2h0.9v-0.5h-0.9
		v-0.8h-0.6v0.8h-0.5v0.5h0.5v1.2c0,0.4,0.1,0.6,0.3,0.8c0.2,0.2,0.4,0.3,0.7,0.3c0.2,0,0.3,0,0.5-0.1c0.1,0,0.2-0.1,0.3-0.1
		l-0.2-0.5C48,28.2,47.9,28.2,47.9,28.2z"/>
	<g>
		<path fill="none" d="M52,26.8c-0.1,0.1-0.2,0.2-0.3,0.3c-0.1,0.1-0.1,0.2-0.1,0.3c0,0.1,0.1,0.2,0.1,0.3c0.1,0.1,0.1,0.2,0.2,0.3
			c0.1,0.1,0.2,0.2,0.3,0.2c0.1,0.1,0.2,0.1,0.3,0.1c0.2,0,0.3-0.1,0.4-0.1c0.1-0.1,0.2-0.1,0.3-0.1c0,0,0.1,0,0.1-0.1
			c0.1-0.1,0.1-0.2,0.2-0.3c0-0.1,0.1-0.2,0.1-0.3c0-0.1,0-0.2-0.1-0.3c-0.1-0.1-0.2-0.2-0.3-0.3c-0.1-0.1-0.2-0.1-0.3-0.2
			c-0.1,0-0.2-0.1-0.3-0.1c-0.1,0-0.2,0.1-0.3,0.1C52.2,26.7,52.1,26.7,52,26.8z"/>
		<path d="M51.5,26.4c0,0-0.1,0.1-0.1,0.2C51.4,26.5,51.5,26.4,51.5,26.4C51.6,26.4,51.5,26.4,51.5,26.4z"/>
		<path d="M52.3,28.3c0.1,0,0.1,0,0.3,0C52.4,28.3,52.3,28.3,52.3,28.3c-0.2-0.1-0.3-0.2-0.3-0.3c-0.1-0.1-0.1-0.2-0.2-0.3
			c0-0.1-0.1-0.2-0.1-0.3c0-0.1,0-0.2,0.1-0.3c0.1-0.1,0.2-0.2,0.3-0.3c0.1-0.1,0.2-0.1,0.3-0.2c0.1,0,0.2-0.1,0.3-0.1c0,0,0,0,0,0
			c-0.1,0-0.3,0-0.4,0.1c-0.1,0-0.2,0.1-0.3,0.2l-0.5-0.2c-0.1,0.1-0.1,0.2-0.2,0.2c-0.1,0.2-0.1,0.4-0.1,0.6c0,0.2,0,0.4,0.1,0.6
			c0.1,0.2,0.2,0.3,0.3,0.4l0.2-0.4C51.9,28.1,52.2,28.2,52.3,28.3z"/>
		<path d="M53.4,26.2c-0.1-0.1-0.1-0.1-0.2-0.1C53,26,52.8,26,52.6,26c0,0,0,0,0,0c0.2,0,0.4,0,0.6,0.1
			C53.3,26.1,53.3,26.2,53.4,26.2z"/>
		<path d="M52.6,28.8C52.6,28.8,52.6,28.8,52.6,28.8c0.2,0,0.4,0,0.6-0.1c0,0,0,0,0,0c0,0-0.1,0-0.1,0C53,28.8,52.8,28.8,52.6,28.8z
			"/>
		<path d="M51.9,28.6c-0.1,0-0.2-0.1-0.2-0.1C51.7,28.5,51.8,28.6,51.9,28.6z"/>
		<path d="M52.5,28.3c0,0,0.1,0,0.2,0c0.1,0,0.2,0,0.3-0.1c0.1,0,0.1-0.1,0.2-0.1c-0.1,0-0.2,0.1-0.3,0.1
			C52.8,28.2,52.7,28.3,52.5,28.3z"/>
		<path d="M51.7,28.5c0,0-0.1-0.1-0.1-0.1C51.6,28.4,51.6,28.5,51.7,28.5z"/>
		<polygon points="51.4,26.6 51.4,26.6 51.4,26.6 		"/>
		<path d="M51.9,28.6C51.9,28.7,52,28.7,51.9,28.6c0.3,0.2,0.5,0.2,0.7,0.2c0,0,0,0,0,0c-0.2,0-0.4,0-0.6-0.1
			C52,28.7,51.9,28.7,51.9,28.6z"/>
		<path d="M52.6,26C52.6,26,52.6,26,52.6,26c-0.2,0-0.4,0-0.6,0.1c-0.1,0-0.3,0.1-0.4,0.3c0.2-0.1,0.3-0.2,0.4-0.3
			C52.2,26,52.4,26,52.6,26z"/>
		<path d="M54,26.8c-0.1-0.1-0.2-0.3-0.3-0.4c-0.1-0.1-0.2-0.1-0.3-0.2c0.1,0.1,0.2,0.3,0.2,0.4l-0.3,0.2c-0.1-0.1-0.2-0.2-0.3-0.2
			c-0.1-0.1-0.3-0.1-0.4-0.1c0,0,0,0,0,0c0.1,0,0.2,0.1,0.3,0.1c0.1,0.1,0.2,0.1,0.3,0.2c0.1,0.1,0.2,0.2,0.3,0.3
			c0.1,0.1,0.1,0.2,0.1,0.3c0,0.1-0.1,0.2-0.1,0.3c-0.1,0.1-0.1,0.2-0.2,0.3c0,0-0.1,0.1-0.1,0.1c0.1,0,0.2-0.1,0.2-0.1l0.2,0.3
			c-0.1,0.1-0.2,0.2-0.4,0.4c0.2-0.1,0.3-0.2,0.4-0.3c0.1-0.1,0.2-0.2,0.3-0.4c0.1-0.2,0.1-0.4,0.1-0.6C54.1,27.2,54.1,27,54,26.8z"
			/>
		<path d="M53.4,28c0,0-0.1,0.1-0.2,0.1c-0.1,0.1-0.1,0.1-0.2,0.1c-0.1,0.1-0.2,0.1-0.3,0.1c-0.1,0-0.1,0-0.2,0c-0.1,0-0.2,0-0.3,0
			c-0.1-0.1-0.4-0.2-0.5-0.3l-0.2,0.4c0,0,0.1,0.1,0.1,0.1c0.1,0,0.2,0.1,0.2,0.1c0,0,0.1,0,0.1,0.1c0.2,0.1,0.4,0.1,0.6,0.1
			c0.2,0,0.4,0,0.6-0.1c0,0,0.1,0,0.1,0c0.1-0.1,0.3-0.3,0.4-0.4L53.4,28z"/>
		<path d="M52.2,26.6c0.1-0.1,0.3-0.1,0.4-0.1c0,0,0,0,0,0c0,0,0,0,0,0c0.1,0,0.3,0,0.4,0.1c0.1,0,0.2,0.1,0.3,0.2l0.3-0.2
			c-0.1-0.1-0.1-0.2-0.2-0.4c-0.1,0-0.1-0.1-0.2-0.1C53,26,52.8,26,52.6,26c-0.2,0-0.4,0-0.6,0.1c-0.2,0.1-0.3,0.2-0.4,0.3
			c-0.1,0.1-0.2,0.2-0.2,0.2c0,0,0,0,0,0l0.5,0.2C52,26.7,52.1,26.6,52.2,26.6z"/>
	</g>
</g>
<g>
	<path d="M54.4,28.4L54.4,28.4c0.1,0,0.2,0,0.2,0.1c0,0,0,0.1,0.1,0.1v0.1v0.1c0,0,0,0.1-0.1,0.1c0,0-0.1,0-0.1,0.1h-0.1h-0.1
		c0,0-0.1,0-0.1-0.1c0,0,0-0.1-0.1-0.1v-0.1v-0.1c0,0,0-0.1,0.1-0.1C54.2,28.5,54.3,28.5,54.4,28.4C54.3,28.4,54.3,28.4,54.4,28.4z
		 M54.4,28.8L54.4,28.8c0.1,0,0.1,0,0.1-0.1c0,0,0,0,0-0.1c0,0,0,0,0-0.1v-0.1c0,0,0,0,0-0.1c0,0,0,0-0.1,0c0,0,0,0-0.1,0h-0.1
		c0,0,0,0-0.1,0c0,0,0,0,0,0.1c0,0,0,0,0,0.1v0.1c0,0,0,0,0,0.1C54.3,28.8,54.3,28.8,54.4,28.8C54.3,28.8,54.4,28.8,54.4,28.8z
		 M54.4,28.5C54.4,28.5,54.5,28.5,54.4,28.5c0.1,0,0.1,0.1,0.1,0.1l0,0c0,0,0,0-0.1,0l0.1,0.1h-0.1l-0.1-0.1l0,0v0.1h-0.1v-0.2H54.4
		z M54.3,28.6L54.3,28.6L54.3,28.6C54.4,28.6,54.4,28.6,54.3,28.6C54.4,28.6,54.4,28.6,54.3,28.6C54.4,28.6,54.4,28.6,54.3,28.6
		C54.4,28.6,54.4,28.6,54.3,28.6L54.3,28.6z"/>
</g>
<path fill="#ED2026" d="M39.4,13.5c0-3.2,1.5-6.1,3.8-7.9c-1.7-1.4-3.9-2.2-6.3-2.2c-5.6,0-10.1,4.5-10.1,10.1S31.4,23.6,37,23.6
	c2.4,0,4.6-0.8,6.3-2.2C40.9,19.6,39.4,16.7,39.4,13.5z"/>
<path fill="#6C6BBD" d="M39.4,13.5c0,3.2,1.5,6.1,3.8,7.9c2.3-1.9,3.8-4.7,3.8-7.9s-1.5-6.1-3.8-7.9C40.9,7.4,39.4,10.3,39.4,13.5z"
	/>
<path fill="#F99F1D" d="M59,19v-0.3h-0.1v-0.1h0.3v0.1h-0.1L59,19L59,19z M59.6,19v-0.3V19h-0.2l-0.1-0.2V19h-0.1v-0.4h0.1l0.1,0.2
	l0.1-0.2h0.1L59.6,19L59.6,19z"/>
<path fill="#0099DF" d="M49.5,3.4c-2.4,0-4.6,0.8-6.3,2.2c2.3,1.9,3.8,4.7,3.8,7.9s-1.5,6.1-3.8,7.9c1.7,1.4,3.9,2.2,6.3,2.2
	c5.6,0,10.1-4.5,10.1-10.1S55.1,3.4,49.5,3.4z"/>
</svg>
