<?xml version="1.0" encoding="utf-8"?>
<!-- Generator: Adobe Illustrator 18.0.0, SVG Export Plug-In . SVG Version: 6.00 Build 0)  -->
<!DOCTYPE svg PUBLIC "-//W3C//DTD SVG 1.1//EN" "http://www.w3.org/Graphics/SVG/1.1/DTD/svg11.dtd">
<svg version="1.1" id="Layer_1" xmlns="http://www.w3.org/2000/svg" xmlns:xlink="http://www.w3.org/1999/xlink" x="0px" y="0px"
	 viewBox="0 0 86 32" enable-background="new 0 0 86 32" xml:space="preserve">
<path fill="#8DC640" d="M71.1,15.7c-0.4,0.3-1,0.4-1.8,0.4H69h-0.4l0.6-3.3h0.3h0.3c0.7,0,1.2,0.1,1.5,0.3c0.3,0.2,0.6,0.5,0.6,1.2
	C71.8,15.1,71.4,15.5,71.1,15.7 M23.2,19.9H17l0.4-2.2h3.9l0.4-2.4h-3.9l0.4-2.2h6.2L23.2,19.9z M74.5,11.3
	c-0.9-0.6-2.3-0.9-4.1-0.9h-4.8l-1.8,9.6h-6.2l0.4-2.2h3.8l0.4-2.4l-3.8,0l0.4-2.2h3.9l0.5-2.8h-7.8l-1.7,9.1h-2.9l1.7-9.1h-4.1
	l-1.7,9.1h-2.8l1.7-9.1h-4.1l-1.8,9.6h-6.3l0.4-2.2h3.8l0.4-2.4h-3.8l0.4-2.2h3.9l0.5-2.8H14.7l-1.4,7.6l-2.8-7.6H6.3L4,22.7h4.1
	l1.4-7.8l2.7,7.8h14.6l1.8-9.6h2.3L29,22.7h38.3l1.1-6.1l1.8,6.1h4.1l-1.9-4.9l0.4-0.1c0.9-0.2,1.7-0.6,2.2-1.3
	c0.5-0.7,0.8-1.5,0.8-2.5C75.8,12.7,75.4,11.9,74.5,11.3"/>
<path fill="#8DC640" d="M77.8,21.3l0.6,0c0.1,0,0.2,0,0.3-0.1s0.1-0.1,0.1-0.1c0-0.1,0.1-0.1,0-0.2c0-0.1,0-0.2-0.1-0.2
	c-0.1-0.1-0.2-0.1-0.3-0.1l-0.6,0L77.8,21.3L77.8,21.3z M77.6,22.4l-0.1-2l0.9-0.1c0.2,0,0.3,0,0.4,0c0.1,0,0.2,0.1,0.2,0.2
	c0.1,0.1,0.1,0.2,0.1,0.3c0,0.1,0,0.3-0.1,0.4c-0.1,0.1-0.2,0.2-0.4,0.2c0.1,0,0.1,0.1,0.2,0.1c0.1,0.1,0.1,0.1,0.2,0.3l0.4,0.5
	l-0.3,0l-0.3-0.4c-0.1-0.1-0.1-0.2-0.2-0.3c-0.1-0.1-0.1-0.1-0.1-0.1c0,0-0.1,0-0.1-0.1c0,0-0.1,0-0.1,0l-0.3,0l0,0.9L77.6,22.4
	L77.6,22.4z"/>
<path fill="#8DC640" d="M76.8,21.4c0-0.4,0.1-0.8,0.4-1.1c0.3-0.3,0.6-0.5,1-0.5c0.8,0,1.5,0.6,1.6,1.4c0,0,0,0.1,0,0.1
	c0,0.8-0.6,1.5-1.4,1.5C77.5,22.9,76.8,22.3,76.8,21.4 M78.2,19.5c-0.5,0-0.9,0.2-1.3,0.6c-0.3,0.4-0.5,0.8-0.5,1.3
	c0.1,1,0.9,1.8,1.9,1.7c1-0.1,1.8-0.9,1.7-1.9l0,0C80.1,20.3,79.2,19.5,78.2,19.5"/>
</svg>
