<?xml version="1.0" encoding="utf-8"?>
<!-- Generator: Adobe Illustrator 18.0.0, SVG Export Plug-In . SVG Version: 6.00 Build 0)  -->
<!DOCTYPE svg PUBLIC "-//W3C//DTD SVG 1.1//EN" "http://www.w3.org/Graphics/SVG/1.1/DTD/svg11.dtd">
<svg version="1.1" id="Layer_1" xmlns="http://www.w3.org/2000/svg" xmlns:xlink="http://www.w3.org/1999/xlink" x="0px" y="0px"
	 viewBox="0 0 86 32" enable-background="new 0 0 86 32" xml:space="preserve">
<path fill="#008AC9" d="M18.8,15.8c0-0.3-0.1-0.4-0.4-0.4h-1.3c-0.3,0-0.5,0.2-0.5,0.5v2.3c0,0.3,0.2,0.5,0.5,0.5h1.2
	c0.1,0,0.2,0,0.3-0.1c0.1-0.1,0.1-0.2,0.1-0.3L18.8,15.8L18.8,15.8z M15,15.5c0-0.6,0.1-1,0.4-1.3c0.1-0.1,0.3-0.2,0.5-0.3
	c0.2-0.1,0.4-0.1,0.6-0.1h2.4c1,0,1.6,0.6,1.6,1.7v3.5c0,0.4-0.2,0.8-0.5,1c-0.3,0.3-0.7,0.5-1.1,0.5h-2.2v2.5h-1.7L15,15.5
	 M23.5,18.4c0,0.1,0.1,0.2,0.1,0.2c0.1,0.1,0.2,0.1,0.3,0.1h1.3c0.3,0,0.4-0.1,0.4-0.3v-0.5c0-0.3-0.1-0.4-0.5-0.4h-1.3
	c-0.2,0-0.3,0-0.3,0.1c-0.1,0.1-0.1,0.2-0.1,0.4L23.5,18.4L23.5,18.4z M25.6,15.8c0-0.3-0.1-0.4-0.4-0.4h-3.3v-1.7h3.8
	c1.1,0,1.6,0.5,1.7,1.6v3.6c0,0.4-0.1,0.8-0.4,1.1c-0.3,0.3-0.6,0.5-1.1,0.5h-2.3c-1.1,0-1.7-0.5-1.7-1.5v-1.4c0-1,0.5-1.6,1.6-1.6
	h2.2L25.6,15.8 M31.9,21.3c0.1,0,0.2-0.1,0.3-0.1c0.1-0.1,0.1-0.2,0.1-0.3v-0.4h-2.1c-0.3,0-0.5,0-0.7-0.1c-0.2-0.1-0.3-0.2-0.5-0.4
	c-0.2-0.2-0.3-0.4-0.4-0.6c-0.1-0.2-0.1-0.4-0.1-0.7v-5h1.7v4.5c0,0.4,0.1,0.5,0.4,0.5h1.2c0.1,0,0.3,0,0.4-0.1
	c0.1-0.1,0.1-0.2,0.1-0.3v-4.6H34v7.4c0,0.6-0.1,1-0.4,1.3c-0.3,0.3-0.7,0.5-1.1,0.5h-3.9v-1.7H31.9 M35.3,18.7h3
	c0.3,0,0.4-0.1,0.4-0.3v-0.2c0,0,0-0.1,0-0.1c-0.1-0.1-0.1-0.2-0.2-0.2H37c-0.4,0-0.8-0.2-1.1-0.4c-0.3-0.3-0.5-0.6-0.5-1v-1.3
	c0-1,0.6-1.5,1.6-1.5h3.4v1.7h-2.9c-0.3,0-0.5,0.1-0.5,0.3v0.2c0,0.2,0.2,0.3,0.5,0.3H39c0.4,0,0.7,0.2,1,0.4c0.3,0.3,0.4,0.6,0.4,1
	v1.2c0,0.3-0.2,0.7-0.5,1c-0.2,0.2-0.3,0.3-0.5,0.4c-0.2,0.1-0.4,0.1-0.7,0.1h-3.5L35.3,18.7 M43.2,18.4c0,0.1,0,0.2,0.1,0.2
	c0.1,0.1,0.2,0.1,0.3,0.1h1.3c0.3,0,0.4-0.1,0.4-0.3v-0.5c0-0.3-0.2-0.4-0.5-0.4h-1.3c-0.2,0-0.3,0-0.3,0.1
	c-0.1,0.1-0.1,0.2-0.1,0.4L43.2,18.4L43.2,18.4z M45.4,15.8c0-0.3-0.1-0.4-0.4-0.4h-3.3v-1.7h3.8c1.1,0,1.6,0.5,1.7,1.6v3.6
	c0,0.4-0.1,0.8-0.4,1.1c-0.3,0.3-0.6,0.5-1.1,0.5h-2.3c-1.1,0-1.7-0.5-1.7-1.5v-1.4c0-1,0.5-1.6,1.6-1.6h2.2V15.8 M48.4,12.8
	c0-0.5,0.2-0.8,0.5-1.1c0.3-0.3,0.7-0.4,1.3-0.4h1v1.6h-0.6c-0.3,0-0.5,0.2-0.5,0.5v0.4h1.2v1.7H50v5h-1.7L48.4,12.8 M55.9,15.8
	L55.9,15.8c0-0.1,0-0.2-0.1-0.3c-0.1-0.1-0.2-0.1-0.3-0.1h-1.1c-0.1,0-0.3,0-0.4,0.1c-0.1,0.1-0.2,0.2-0.2,0.3v0.7L55.9,15.8
	L55.9,15.8z M53.8,18.2v0.1c0,0.1,0,0.2,0.1,0.3c0.1,0.1,0.1,0.2,0.2,0.2h3.4v1.7H54c-0.3,0-0.6,0-0.8-0.1c-0.2-0.1-0.4-0.2-0.5-0.3
	c-0.2-0.2-0.3-0.4-0.4-0.6c-0.1-0.2-0.1-0.5-0.1-0.8l0-3.4c0-1,0.6-1.5,1.6-1.6H56c1,0,1.6,0.6,1.6,1.6v1.3L53.8,18.2 M61.1,20.5
	c-0.3,0-0.5,0-0.7-0.1c-0.2,0-0.4-0.1-0.7-0.3c-0.2-0.2-0.4-0.4-0.5-0.7c-0.1-0.2-0.1-0.5-0.1-0.8v-3.2c0-0.3,0-0.5,0.1-0.7
	c0.1-0.2,0.2-0.4,0.3-0.6c0.2-0.2,0.4-0.3,0.6-0.4c0.2-0.1,0.4-0.1,0.7-0.1h2.5v0.4h-2.5c-0.4,0-0.8,0.1-1,0.3
	c-0.3,0.2-0.4,0.5-0.4,1v3.2c0,0.2,0,0.4,0.1,0.6c0.1,0.2,0.2,0.4,0.3,0.5c0.2,0.1,0.4,0.2,0.5,0.3c0.2,0,0.4,0.1,0.6,0.1h2.4v0.4
	L61.1,20.5 M70,16.3h-3.3c-0.4,0-0.7,0.1-0.9,0.4c-0.2,0.2-0.3,0.6-0.3,1v1c0,0.2,0,0.4,0.1,0.5c0,0.2,0.1,0.3,0.3,0.5
	c0.3,0.2,0.6,0.4,0.9,0.4h2c0.8,0,1.3-0.4,1.3-1.3L70,16.3L70,16.3z M70.4,18.6c0,0.3,0,0.5-0.1,0.7c-0.1,0.2-0.2,0.4-0.3,0.6
	c-0.3,0.4-0.8,0.5-1.3,0.5h-2c-0.5,0-0.9-0.2-1.3-0.5c-0.3-0.3-0.5-0.7-0.5-1.3v-1c0-1.2,0.6-1.7,1.7-1.8H70v-0.4
	c0-0.4-0.1-0.7-0.3-1c-0.1-0.2-0.3-0.3-0.5-0.4c-0.2-0.1-0.4-0.1-0.6-0.1H65v-0.4h3.4c0.3,0,0.6,0,0.8,0.1c0.1,0,0.3,0.1,0.4,0.1
	c0.1,0.1,0.2,0.2,0.3,0.3c0.3,0.4,0.5,0.8,0.4,1.4L70.4,18.6 M74.1,14.1c-0.9,0-1.4,0.5-1.4,1.5v4.9h-0.4v-4.8
	c0-1.3,0.6-1.9,1.8-1.9h0.4v0.4L74.1,14.1 M80.8,14.1h-3.1c-0.2,0-0.4,0-0.6,0.1c-0.2,0-0.4,0.2-0.6,0.3c-0.2,0.2-0.3,0.3-0.3,0.5
	c-0.1,0.2-0.1,0.4-0.1,0.6v3.1c0,0.5,0.1,0.9,0.5,1.1c0.1,0.1,0.3,0.2,0.5,0.2c0.2,0.1,0.4,0.1,0.6,0.1h1.4c0.5,0,0.9-0.1,1.3-0.3
	c0.3-0.2,0.5-0.6,0.5-1.2V14.1L80.8,14.1z M81.2,18.6c0,1.3-0.7,1.9-2,1.9h-1.5c-0.3,0-0.6,0-0.8-0.1c-0.3-0.1-0.5-0.2-0.7-0.5
	c-0.2-0.2-0.3-0.4-0.3-0.7c-0.1-0.2-0.1-0.5-0.1-0.7v-2.9c0-1.3,0.7-1.9,2-1.9h3.1v-2.2h0.4L81.2,18.6"/>
<path fill="#E3001B" d="M5.8,13.5c0.1-0.1,0.3-0.1,0.4-0.1c0.2-1.1,1.3-2,2.5-2s2.2,0.9,2.5,2c0.4,0.1,0.7,0.2,0.9,0.4
	c0-0.2,0-0.4,0-0.6c-0.2-1.7-1.6-3.1-3.4-3.1c-1.8,0-3.3,1.4-3.4,3.2c0,0.2,0,0.3,0,0.5C5.5,13.7,5.6,13.5,5.8,13.5 M10.7,13.7h-4
	c-0.2,0-0.4,0-0.6,0.1c-0.2,0.1-0.4,0.2-0.5,0.3c-0.3,0.3-0.4,0.7-0.4,1.3v3.2c0,0.6,0.1,1,0.4,1.3c0.1,0.1,0.3,0.2,0.5,0.3
	c0.2,0.1,0.4,0.1,0.6,0.1h4c1,0,1.6-0.6,1.6-1.7v-3.3C12.2,14.3,11.7,13.7,10.7,13.7"/>
</svg>
