<?xml version="1.0" encoding="utf-8"?>
<!-- Generator: Adobe Illustrator 18.0.0, SVG Export Plug-In . SVG Version: 6.00 Build 0)  -->
<!DOCTYPE svg PUBLIC "-//W3C//DTD SVG 1.1//EN" "http://www.w3.org/Graphics/SVG/1.1/DTD/svg11.dtd">
<svg version="1.1" id="Layer_1" xmlns="http://www.w3.org/2000/svg" xmlns:xlink="http://www.w3.org/1999/xlink" x="0px" y="0px"
	 viewBox="0 0 86 32" enable-background="new 0 0 86 32" xml:space="preserve">
<g>
	<path fill="#7C2366" d="M59.2,9.4c1.7,0,3-1.4,3-3c0-1.7-1.4-3-3-3c-1.7,0-3,1.4-3,3C56.2,8,57.5,9.4,59.2,9.4L59.2,9.4z
		 M35.9,11.1c-0.1,0.3-1.1,3.1-3.5,6V4.7L26,6v22.5h6.4v-6.9c1.8,2.8,2.8,6.9,2.8,6.9h7.6c-0.8-3.1-4.1-8.9-4.1-8.9
		c3-3.8,4.3-7.8,4.5-8.4H35.9L35.9,11.1z M52.6,10.8C46.9,11,44,13.6,44,18.7v9.8h6.2v-8c0-3.1,0.4-4.4,4-4.5v-5.1
		C53.7,10.8,52.6,10.8,52.6,10.8L52.6,10.8z M15.3,13.5c-0.8-0.1-2.6-0.2-2.6-1.8c0-2,2.6-2,3.6-2c1.7,0,3.9,0.5,5.5,1
		c0,0,0.9,0.3,1.6,0.6l0.1,0v-0.1V6l-0.1,0c-1.9-0.7-4.1-1.3-8.1-1.3c-7,0-9.4,4.1-9.4,7.5c0,2,0.9,6.7,8.8,7.3
		c0.7,0,2.5,0.1,2.5,1.8c0,1.4-1.5,2.2-3.9,2.2c-2.7,0-5.3-0.7-6.9-1.3v5.5c2.4,0.6,5.1,0.9,8.2,0.9c6.8,0,9.9-3.8,9.9-7.6
		C24.4,16.7,21,13.9,15.3,13.5L15.3,13.5z M56.1,28.4h6.2V11.1h-6.2V28.4L56.1,28.4z M73.9,5.8v22.6h6.2V4.7L73.9,5.8L73.9,5.8z
		 M64.9,5.8l6.2-1.1v23.7h-6.2V5.8L64.9,5.8z"/>
</g>
</svg>
