<?xml version="1.0" encoding="utf-8"?>
<!-- Generator: Adobe Illustrator 18.0.0, SVG Export Plug-In . SVG Version: 6.00 Build 0)  -->
<!DOCTYPE svg PUBLIC "-//W3C//DTD SVG 1.1//EN" "http://www.w3.org/Graphics/SVG/1.1/DTD/svg11.dtd">
<svg version="1.1" id="Layer_1" xmlns="http://www.w3.org/2000/svg" xmlns:xlink="http://www.w3.org/1999/xlink" x="0px" y="0px"
	 viewBox="0 0 86 32" enable-background="new 0 0 86 32" xml:space="preserve">
<g>
	<path fill="#253B7C" d="M33.9,3.9L24,27.5h-6.3l-5-18.7c-0.2-1.3-0.6-1.7-1.5-2.1C9.9,5.8,7.4,5.2,5.3,4.5l0.2-0.6h10.3
		c1.3,0,2.5,0.8,2.7,2.3L21,19.9l6.3-16H33.9L33.9,3.9z M59.1,19.9c0-6.3-8.6-6.5-8.6-9.3c0-0.8,0.8-1.7,2.5-1.9
		c0.8-0.2,3.4-0.2,6.1,1.1l1.1-5c-1.5-0.6-3.4-1.1-5.7-1.1c-6.1,0-10.3,3.2-10.3,7.8c0,3.4,2.9,5.3,5.3,6.5c2.3,1.1,3.2,1.9,3.2,2.9
		c0,1.7-1.9,2.3-3.6,2.3c-3.2,0-4.8-0.8-6.3-1.5L41.6,27c1.5,0.6,4,1.3,6.7,1.3C54.9,27.9,59.1,24.7,59.1,19.9 M75.1,27.5h5.7
		l-5-23.5h-5.3c-1.3,0-2.1,0.6-2.5,1.7l-9,21.9h6.3l1.3-3.6h7.8L75.1,27.5z M68.3,19l3.2-8.8l1.9,8.8H68.3z M42.7,3.9l-5,23.5h-6.1
		l5-23.5C36.6,3.9,42.7,3.9,42.7,3.9z"/>
</g>
</svg>
